<?xml version="1.0" standalone="no"?>
<svg viewBox="0 0 200 200" xmlns="http://www.w3.org/2000/svg">
  <path fill="#F3070B" d="M36.3,-52.3C47.7,-49.2,58,-40.2,67,-28.3C76.1,-16.4,83.9,-1.6,81.2,11.1C78.5,23.8,65.3,34.5,54.7,48.2C44.1,62,36.1,78.9,24.9,79.9C13.7,81,-0.7,66.1,-17.8,60.9C-34.9,55.7,-54.8,60.2,-67.8,53.9C-80.8,47.6,-87,30.5,-85.8,14.6C-84.6,-1.3,-76,-16,-68.2,-30.3C-60.4,-44.7,-53.5,-58.6,-42.3,-61.8C-31.1,-65.1,-15.5,-57.6,-1.5,-55.2C12.5,-52.9,24.9,-55.5,36.3,-52.3Z" transform="translate(100 100)" />
</svg>
